<?xml version="1.0" encoding="UTF-8"?>
<svg id="_レイヤー_1" data-name="レイヤー 1" xmlns="http://www.w3.org/2000/svg" xmlns:xlink="http://www.w3.org/1999/xlink" viewBox="0 0 823.24 735.54">
  <defs>
    <style>
      .cls-1 {
        fill: none;
      }

      .cls-2 {
        fill: #2f2e41;
      }

      .cls-3 {
        fill: #e6e6e6;
      }

      .cls-4 {
        fill: #1d5fbc;
      }

      .cls-5 {
        fill: #3f3d56;
      }

      .cls-6 {
        fill: #ccc;
      }

      .cls-7 {
        fill: #ffb8b8;
      }

      .cls-8 {
        fill: #fff;
      }

      .cls-9 {
        fill: #f2f2f2;
      }

      .cls-10 {
        clip-path: url(#clippath);
      }
    </style>
    <clipPath id="clippath">
      <path class="cls-1" d="M423.59,529.71c0,60.75-49.25,110-110,110s-110-49.25-110-110,49.25-110,110-110c60.74.02,109.98,49.26,110,110Z"/>
    </clipPath>
  </defs>
  <path class="cls-9" d="M770.31,400.74l-589.18,252.06c-8.38,3.57-18.07-.31-21.66-8.68L4.04,280.82c-2.62-6.14.23-13.24,6.36-15.87L607.51,9.5c6.24-2.66,13.47.23,16.14,6.47l155.34,363.11c3.57,8.38-.31,18.07-8.68,21.66Z"/>
  <path class="cls-8" d="M743.07,389.74l-549.1,234.92c-8.05,3.44-17.22.11-20.45-7.42L38.17,300.86c-2.39-5.59.52-12.21,6.48-14.77L601.14,48.02c6.06-2.59,12.97-.08,15.41,5.6l135.28,316.2c3.22,7.54-.7,16.47-8.75,19.91Z"/>
  <path class="cls-4" d="M624.16,17.76L4.64,282.8l-3.3-7.72c-3.58-8.41.32-18.13,8.72-21.73L599.12,1.34c8.41-3.59,18.13.31,21.73,8.7l3.3,7.72Z"/>
  <circle class="cls-8" cx="27.41" cy="259.52" r="4.28"/>
  <circle class="cls-8" cx="42.36" cy="253.13" r="4.28"/>
  <circle class="cls-8" cx="57.31" cy="246.73" r="4.28"/>
  <path class="cls-9" d="M303.89,363.78l-73.23,31.33c-8.38,3.57-18.07-.31-21.66-8.68l-40.42-94.49c-3.57-8.38.31-18.07,8.68-21.66l73.23-31.33c8.38-3.57,18.07.31,21.66,8.68l40.42,94.49c3.57,8.38-.31,18.07-8.68,21.66Z"/>
  <path class="cls-9" d="M427.8,310.77l-73.23,31.33c-8.38,3.57-18.07-.31-21.66-8.68l-40.42-94.49c-3.57-8.38.31-18.07,8.68-21.66l73.23-31.33c8.38-3.57,18.07.31,21.66,8.68l40.42,94.49c3.57,8.38-.31,18.07-8.68,21.66Z"/>
  <path class="cls-9" d="M551.71,257.76l-73.23,31.33c-8.38,3.57-18.07-.31-21.66-8.68l-40.42-94.49c-3.57-8.38.31-18.07,8.68-21.66l73.23-31.33c8.38-3.57,18.07.31,21.66,8.68l40.42,94.49c3.57,8.38-.31,18.07-8.68,21.66Z"/>
  <path class="cls-9" d="M366.43,509.96l-73.23,31.33c-8.38,3.57-18.07-.31-21.66-8.68l-40.42-94.49c-3.57-8.38.31-18.07,8.68-21.66l73.23-31.33c8.38-3.57,18.07.31,21.66,8.68l40.42,94.49c3.57,8.38-.31,18.07-8.68,21.66Z"/>
  <path class="cls-9" d="M490.34,456.95l-73.23,31.33c-8.38,3.57-18.07-.31-21.66-8.68l-40.42-94.49c-3.57-8.38.31-18.07,8.68-21.66l73.23-31.33c8.38-3.57,18.07.31,21.66,8.68l40.42,94.49c3.57,8.38-.31,18.07-8.68,21.66Z"/>
  <path class="cls-9" d="M614.25,403.94l-73.23,31.33c-8.38,3.57-18.07-.31-21.66-8.68l-40.42-94.49c-3.57-8.38.31-18.07,8.68-21.66l73.23-31.33c8.38-3.57,18.07.31,21.66,8.68l40.42,94.49c3.57,8.38-.31,18.07-8.68,21.66Z"/>
  <path class="cls-3" d="M806.74,735.54H165.9c-9.11-.01-16.49-7.39-16.5-16.5v-395.15c0-6.67,5.41-12.08,12.09-12.09h649.45c6.79,0,12.29,5.51,12.3,12.3v394.94c-.01,9.11-7.39,16.49-16.5,16.5Z"/>
  <path class="cls-8" d="M786.02,714.71H188.77c-8.76,0-15.88-6.67-15.88-14.87v-344.11c0-6.08,5.28-11.03,11.77-11.03h605.27c6.6,0,11.96,5.03,11.96,11.21v343.92c0,8.2-7.12,14.87-15.88,14.87Z"/>
  <path class="cls-4" d="M823.01,325.94H149.17v-8.4c.01-9.14,7.42-16.54,16.56-16.55h640.72c9.14,0,16.55,7.41,16.56,16.55v8.4Z"/>
  <circle class="cls-8" cx="179.26" cy="313.49" r="4.28"/>
  <circle class="cls-8" cx="195.52" cy="313.49" r="4.28"/>
  <circle class="cls-8" cx="211.78" cy="313.49" r="4.28"/>
  <rect class="cls-3" x="450.2" y="441.31" width="324" height="41.03" rx="20.51" ry="20.51"/>
  <rect class="cls-3" x="450.2" y="509.19" width="324" height="41.03" rx="20.51" ry="20.51"/>
  <rect class="cls-3" x="450.2" y="577.08" width="324" height="41.03" rx="20.51" ry="20.51"/>
  <g class="cls-10">
    <g>
      <path class="cls-2" d="M285.27,604.3s45.71-10.53,70.85,8.78c25.14,19.31-32,63.2-32,63.2l-38.85-71.98Z"/>
      <path class="cls-6" d="M239.48,832.91c-2.92.18-5.85-.16-8.65-1l-.61-.26.09-.66c.12-.85,11.6-85.31,5.06-103.3-5.62-15.45-17.18-67.63-20.58-83.26-.81-3.66.88-7.42,4.16-9.24l62.39-34.97c5.33-3,12.07-1.26,15.28,3.95l15.86,25.62,24.75-24.75c3.91-3.92,10.08-4.46,14.61-1.28l52.18,36.53c4.65,3.22,6.43,9.23,4.3,14.47-9.96,24.62-32.39,90.1-25.71,166.25l.11,1.24-1.2-.31c-.45-.12-45.49-11.49-91.55,1.67-26.8,7.66-42.17,9.33-50.49,9.33Z"/>
      <path class="cls-6" d="M221.1,636.15h0c-3.81-.54-7.42,1.82-8.45,5.53l-28.32,102.26,6.69,61.9,31.79-5.02-3.35-43.5,23.42-55.21-15.46-60.3c-.77-2.99-3.26-5.23-6.32-5.67Z"/>
      <g>
        <circle class="cls-7" cx="315.6" cy="541.28" r="43.12"/>
        <path class="cls-2" d="M348.94,480.75c-5.86-9.95-16.81-15.77-28.34-15.08-5.91.74-11.69,2.36-17.12,4.79l-28.19,11c-7.29,2.85-15.28,6.33-18.45,13.49-2.94,6.65-.75,14.32,1.47,21.24l10.55,32.89c1.17-7.44,3.17-14.73,5.98-21.73,3.06-6.88,7.91-13.22,14.61-16.65,7.32-3.76,15.95-3.68,24.17-3.28,11.64.56,24.3,2.04,32.57,10.25,4.39,4.66,7.37,10.48,8.58,16.76,1.2,6.25,1.8,12.61,1.8,18.98,4.77-8.21,8.79-16.83,12.01-25.76,2.65-6.65,4.16-13.7,4.46-20.85.28-7.21-2.12-14.27-6.72-19.83-4.76-5.32-12.52-8.2-19.34-6.09"/>
      </g>
      <path class="cls-6" d="M402.91,640.4h0c5.22.87,9.13,5.26,9.39,10.54l9.59,191.7h-35.13l-11.71-102.05,14.9-90.91c1.01-6.14,6.8-10.29,12.93-9.29,0,0,.02,0,.03,0Z"/>
    </g>
  </g>
  <path class="cls-5" d="M313.59,642.71c-62.36-.05-112.86-50.64-112.81-113,.05-62.36,50.64-112.86,113-112.81,62.36.05,112.86,50.64,112.81,113-.04,48.88-31.53,92.18-78.01,107.28-11.3,3.67-23.11,5.54-34.99,5.53ZM313.59,422.71c-59.1,0-107.02,47.9-107.03,107,0,59.1,47.9,107.02,107,107.03,59.1,0,107.02-47.9,107.03-107v-.03c-.07-59.07-47.93-106.93-107-107h0Z"/>
</svg>