<?xml version="1.0" encoding="UTF-8"?>
<svg id="_レイヤー_1" data-name="レイヤー 1" xmlns="http://www.w3.org/2000/svg" xmlns:xlink="http://www.w3.org/1999/xlink" viewBox="0 0 728 486.49">
  <defs>
    <style>
      .cls-1, .cls-2, .cls-3 {
        fill: none;
      }

      .cls-2 {
        stroke: #000;
        stroke-width: .41px;
      }

      .cls-2, .cls-3 {
        stroke-linecap: round;
        stroke-miterlimit: 10;
      }

      .cls-4 {
        fill: #2f2e41;
      }

      .cls-5 {
        fill: #ffb6b6;
      }

      .cls-6 {
        fill: #1d5fbc;
      }

      .cls-7 {
        fill: #e4e4e4;
      }

      .cls-8 {
        fill: #3f3d56;
      }

      .cls-9 {
        fill: #f25f1d;
      }

      .cls-10 {
        fill: #2b1f0e;
      }

      .cls-11 {
        fill: #ccc;
      }

      .cls-12 {
        fill: #606060;
      }

      .cls-13 {
        fill: #ffb8b8;
      }

      .cls-14 {
        fill: #fff;
      }

      .cls-15 {
        fill: #f0f0f0;
      }

      .cls-3 {
        stroke: #2b1f0e;
        stroke-width: 2px;
      }

      .cls-16 {
        clip-path: url(#clippath);
      }

      .cls-17 {
        fill: #ffe9a1;
      }
    </style>
    <clipPath id="clippath">
      <path class="cls-1" d="M406.5,147.12c-15.57-44.72-64.44-68.36-109.16-52.79-44.72,15.57-68.36,64.44-52.79,109.16,3.16,9.07,7.82,17.55,13.78,25.07.77.97,1.57,1.94,2.39,2.88.06.06.11.12.17.18,2.01,2.31,4.14,4.51,6.39,6.59.58.54,1.2,1.09,1.82,1.62,1.17,1.05,2.37,2.05,3.62,3,2.43,1.92,4.97,3.7,7.6,5.34l.09.05c1.71,1.06,3.45,2.05,5.22,2.99l.72.37c1.66.86,3.36,1.68,5.09,2.43.35.15.74.31,1.09.46.03.02.05.02.08.03,3.51,1.46,7.12,2.68,10.8,3.65,7.21,1.92,14.65,2.9,22.12,2.89,2.72,0,5.42-.12,8.08-.38,6.08-.56,12.09-1.77,17.91-3.62.02,0,.03-.02.05-.02,3.68-1.17,7.27-2.6,10.76-4.26.02-.02.05-.02.06-.03.78-.37,1.54-.77,2.31-1.15.12-.06.25-.12.37-.18.62-.32,1.23-.65,1.85-.98,1.54-.85,3.05-1.74,4.54-2.69.42-.25.82-.51,1.23-.78,1.35-.89,2.69-1.85,3.99-2.82.23-.17.48-.34.71-.52,29.58-22.45,41.34-61.4,29.12-96.47h0Z"/>
    </clipPath>
  </defs>
  <g>
    <path class="cls-14" d="M647.25,217.05c-12.81-36.81-53.04-56.26-89.85-43.45-36.81,12.81-56.26,53.04-43.45,89.85,2.6,7.47,6.43,14.44,11.34,20.64.63.8,1.29,1.6,1.96,2.37.05.05.09.1.14.15,1.65,1.9,3.41,3.71,5.26,5.42.48.44.99.9,1.49,1.33.96.86,1.95,1.68,2.98,2.47.41.32.8.63,1.22.94,1.62,1.23,3.31,2.37,5.04,3.46l.08.04c.49.3,1,.61,1.51.9.91.54,1.85,1.06,2.79,1.56l.6.3c1.37.71,2.76,1.38,4.19,2,.29.13.61.25.9.38.03.01.04.01.06.03.67.28,1.34.54,2.03.8,2.25.86,4.54,1.59,6.87,2.2,5.94,1.58,12.06,2.38,18.2,2.38,2.24,0,4.46-.1,6.65-.32,5.01-.46,9.95-1.46,14.75-2.98.01,0,.03-.01.04-.01,3.03-.96,5.99-2.14,8.86-3.51.01-.01.04-.01.05-.03.65-.3,1.27-.63,1.9-.95.1-.05.2-.1.3-.15.51-.27,1.01-.53,1.52-.81,1.27-.7,2.51-1.43,3.74-2.22.34-.2.67-.42,1.01-.65.48-.32.96-.65,1.43-.99.62-.43,1.24-.87,1.85-1.33.19-.14.39-.28.58-.43,24.35-18.48,34.02-50.54,23.97-79.4h0Z"/>
    <rect class="cls-12" x="545.86" y="248.6" width="65.55" height="89.95" rx="25" ry="25"/>
    <path class="cls-7" d="M647.25,217.05c-12.81-36.81-53.04-56.26-89.85-43.45-36.81,12.81-56.26,53.04-43.45,89.85,2.6,7.47,6.43,14.44,11.34,20.64.63.8,1.29,1.6,1.96,2.37.05.05.09.1.14.15,1.65,1.9,3.41,3.71,5.26,5.42.48.44.99.9,1.49,1.33.96.86,1.95,1.68,2.98,2.47.41.32.8.63,1.22.94,1.62,1.23,3.31,2.37,5.04,3.46l.08.04c.49.3,1,.61,1.51.9.91.54,1.85,1.06,2.79,1.56l.6.3c1.37.71,2.76,1.38,4.19,2,.29.13.61.25.9.38.03.01.04.01.06.03.67.28,1.34.54,2.03.8,2.25.86,4.54,1.59,6.87,2.2,5.94,1.58,12.06,2.38,18.2,2.38,2.24,0,4.46-.1,6.65-.32,5.01-.46,9.95-1.46,14.75-2.98.01,0,.03-.01.04-.01,3.03-.96,5.99-2.14,8.86-3.51.01-.01.04-.01.05-.03.65-.3,1.27-.63,1.9-.95.1-.05.2-.1.3-.15.51-.27,1.01-.53,1.52-.81,1.27-.7,2.51-1.43,3.74-2.22.34-.2.67-.42,1.01-.65.48-.32.96-.65,1.43-.99.62-.43,1.24-.87,1.85-1.33.19-.14.39-.28.58-.43,24.35-18.48,34.02-50.54,23.97-79.4h0ZM620.95,293.37c-.42.33-.85.65-1.28.94-.42.32-.84.62-1.27.9-.37.27-.73.52-1.11.76l-.11.08c-.28.19-.56.37-.84.54-1.05.66-2.12,1.29-3.19,1.9-.11.06-.23.13-.34.19-.48.27-.96.52-1.44.77-.06.04-.14.06-.2.1l-.08.04c-.61.32-1.23.62-1.85.91-2.4,1.15-4.86,2.15-7.39,2.99-.33.11-.66.23-.99.33-4.54,1.44-9.22,2.39-13.96,2.84-2.08.19-4.18.29-6.3.29-5.81.01-11.6-.75-17.22-2.25-2.88-.75-5.7-1.71-8.45-2.86-.14-.06-.29-.11-.43-.18-.15-.06-.29-.11-.43-.18-.15-.06-.29-.13-.44-.2-1.19-.52-2.37-1.09-3.52-1.68l-.56-.29c-1.41-.73-2.79-1.52-4.13-2.36-.39-.24-.8-.49-1.18-.76-.1-.06-.19-.13-.29-.19-.9-.6-1.8-1.22-2.67-1.86-.6-.44-1.19-.89-1.77-1.34-.98-.73-1.91-1.52-2.82-2.33-.48-.41-.95-.85-1.41-1.27-1.8-1.66-3.5-3.42-5.09-5.27-.53-.61-1.05-1.22-1.55-1.85-.11-.13-.22-.26-.32-.39-22.88-28.87-18.02-70.83,10.85-93.71,28.87-22.88,70.83-18.02,93.71,10.85s18.02,70.83-10.85,93.71c-.36.28-.72.57-1.09.84h0Z"/>
    <path class="cls-15" d="M647.09,85.99h-17.28c2.68,6.56-.47,14.05-7.03,16.72-1.54.63-3.18.95-4.84.95h-75.82c-7.08,0-12.83-5.74-12.83-12.83,0-1.66.32-3.31.95-4.84h-16.14c-14.91,0-27,12.09-27,27v342.2c0,14.91,12.09,27,27,27h132.98c14.91,0,27-12.09,27-27V112.99c0-14.91-12.09-27-27-27ZM651.05,244.53c-.06.91-.13,1.82-.22,2.73-1.91,19.08-11.57,37.06-27.55,49.18-.19.15-.39.29-.58.43-.61.46-1.23.9-1.85,1.33-.47.34-.95.67-1.43.99-.34.23-.67.44-1.01.65-.61.39-1.23.77-1.85,1.14-.62.37-1.25.73-1.88,1.08-.51.28-1.01.54-1.52.81-.1.05-.2.1-.3.15-.63.32-1.25.65-1.9.95-.01.01-.04.01-.05.03-2.87,1.37-5.83,2.54-8.86,3.51-.01,0-.03.01-.04.01-4.79,1.52-9.74,2.51-14.75,2.98-2.19.22-4.41.32-6.65.32-6.15,0-12.27-.8-18.2-2.38-2.33-.61-4.62-1.35-6.87-2.2-.68-.25-1.36-.52-2.03-.8-.03-.01-.04-.01-.06-.03-.29-.13-.61-.25-.9-.38-.72-.31-1.42-.63-2.12-.97-.7-.33-1.39-.68-2.07-1.03l-.6-.3c-.94-.49-1.87-1.01-2.79-1.56-.51-.29-1.01-.6-1.51-.9l-.08-.04c-1.74-1.09-3.42-2.23-5.04-3.46-.42-.3-.81-.62-1.22-.94-.51-.39-1.02-.79-1.51-1.21-.5-.41-.98-.83-1.46-1.26-.51-.43-1.01-.89-1.49-1.33-1.85-1.71-3.61-3.52-5.26-5.42-.05-.05-.09-.1-.14-.15-.67-.77-1.33-1.57-1.96-2.37-4.91-6.2-8.75-13.17-11.34-20.64-8.41-24.16-2.92-49.78,12.25-68.17,1.44-1.75,2.98-3.44,4.59-5.05.81-.81,1.64-1.59,2.49-2.36,6.8-6.15,14.92-11.06,24.12-14.27,17.25-6.01,35.26-4.92,50.84,1.72,3.12,1.33,6.14,2.88,9.03,4.64,3.86,2.35,7.51,5.07,10.87,8.13.84.77,1.67,1.55,2.47,2.36,4.84,4.85,9.01,10.46,12.33,16.72.55,1.04,1.08,2.11,1.58,3.19,1.01,2.16,1.92,4.39,2.72,6.69h0s0,0,0,0c1.89,5.41,3.08,10.94,3.61,16.46.18,1.84.28,3.68.31,5.52.03,1.84,0,3.67-.12,5.5Z"/>
    <path class="cls-14" d="M629.43,402.2h-97.45c-6.46,0-11.7-5.23-11.7-11.68s5.23-11.7,11.68-11.7h97.47c6.46,0,11.69,5.24,11.69,11.69s-5.24,11.69-11.69,11.69Z"/>
    <path class="cls-14" d="M629.43,366.14h-97.45c-6.46,0-11.69-5.24-11.69-11.69s5.24-11.69,11.69-11.69h97.45c6.46,0,11.69,5.25,11.68,11.7,0,6.45-5.23,11.68-11.68,11.68Z"/>
    <path class="cls-12" d="M544.65,237.17s-7.44-13.49-3.79-26.4c0,0,15.72-4.21,26.39,8.14l-22.6,18.26Z"/>
    <path class="cls-11" d="M546.94,233.7s-5.53-10-2.82-19.64c0,0,11.69-3.13,19.63,6.06l-16.81,13.58Z"/>
    <path class="cls-17" d="M614.53,233.7s5.53-10,2.82-19.64c0,0-11.69-3.13-19.63,6.06l16.81,13.58Z"/>
    <path class="cls-12" d="M616.81,237.17s7.44-13.49,3.79-26.4c0,0-15.72-4.21-26.39,8.14l22.6,18.26Z"/>
    <path class="cls-11" d="M614.53,233.7s5.53-10,2.82-19.64c0,0-11.69-3.13-19.63,6.06l16.81,13.58Z"/>
    <path class="cls-12" d="M620.59,253.41c0,1.07-.05,2.13-.14,3.18-1.69,19.6-18.83,35-39.72,35-18.7,0-34.4-12.34-38.7-29-.77-3-1.16-6.09-1.16-9.19,0-21.08,17.85-38.18,39.86-38.18s39.86,17.13,39.86,38.19Z"/>
    <path class="cls-11" d="M546.77,271.68l-3-6.46h-12.4l7,6.18-5.05,1.68s41.82,44.91,92.63,0l-3.93-1.4,6.18-5.33-4.55-1.13,1.68-3.37-6.78.28-7.82,14.59-26.08,11.52-37.88-16.56Z"/>
    <circle class="cls-10" cx="595.05" cy="257.36" r="3.65"/>
    <circle class="cls-10" cx="565.3" cy="257.36" r="3.65"/>
    <path class="cls-11" d="M620.46,256.61c-1.69,19.6-18.83,35-39.72,35-18.7,0-34.4-12.34-38.7-29,2,1.82,3.79,4.46,5.39,6.18,1.16,1.37,2.51,2.57,4,3.57,2.45,1.5,5.43,1.85,8.3,2,2.59.1,5.47-.06,7.32-1.88s2.06-4.47,3.12-6.73c1.66-3.3,4.81-5.6,8.46-6.17,3.63-.51,7.33.4,10.31,2.53.81.53,1.51,1.21,2.06,2,.58,1.1,1.05,2.24,1.41,3.43,2.31,5.6,9.77,7.85,15.4,5.61s9.36-7.89,10.75-13.79c.26-1.17.81-2.63,1.9-2.75Z"/>
    <path class="cls-9" d="M580.17,275.33l-1.68,1.68c.98.47,2.11.47,3.09,0l-1.41-1.68Z"/>
    <path class="cls-3" d="M572.17,276.31s7.86,3.65,7.86-5.61"/>
    <path class="cls-3" d="M587.89,276.31s-7.86,3.65-7.86-5.61"/>
    <ellipse class="cls-9" cx="580.17" cy="266.9" rx="3.09" ry="3.93"/>
    <ellipse class="cls-11" cx="533.7" cy="296.62" rx="13.14" ry="15.91"/>
    <ellipse class="cls-11" cx="619.54" cy="300.55" rx="13.14" ry="15.91"/>
  </g>
  <g>
    <path class="cls-15" d="M213.89,87.99h-17.28c2.68,6.56-.47,14.05-7.03,16.72-1.54.63-3.18.95-4.84.95h-75.82c-7.08,0-12.83-5.74-12.83-12.83,0-1.66.32-3.31.95-4.84h-16.14c-14.91,0-27,12.09-27,27h0v342.2c0,14.91,12.09,27,27,27h132.98c14.91,0,27-12.09,27-27h0V114.99c0-14.91-12.09-27-27-27Z"/>
    <path class="cls-14" d="M196.23,368.14h-97.45c-6.46,0-11.69-5.25-11.68-11.7,0-6.45,5.23-11.68,11.68-11.68h97.45c6.46,0,11.69,5.24,11.69,11.69s-5.24,11.69-11.69,11.69Z"/>
    <path class="cls-14" d="M196.23,404.2h-97.45c-6.46,0-11.69-5.25-11.68-11.7,0-6.45,5.23-11.68,11.68-11.68h97.45c6.46,0,11.69,5.24,11.69,11.69s-5.24,11.69-11.69,11.69Z"/>
    <g>
      <path class="cls-14" d="M214.04,219.05c-12.81-36.81-53.04-56.26-89.85-43.45-36.81,12.81-56.26,53.04-43.45,89.85,2.6,7.47,6.43,14.44,11.34,20.64.63.8,1.29,1.6,1.96,2.37.05.05.09.1.14.15,1.65,1.9,3.41,3.71,5.26,5.42.48.44.99.9,1.49,1.33.96.86,1.95,1.68,2.98,2.47.41.32.8.63,1.22.94,1.62,1.23,3.31,2.37,5.04,3.46l.08.04c.49.3,1,.61,1.51.9.91.54,1.85,1.06,2.79,1.56l.6.3c1.37.71,2.76,1.38,4.19,2,.29.13.61.25.9.38.03.01.04.01.06.03.67.28,1.34.54,2.03.8,2.25.86,4.54,1.59,6.87,2.2,5.94,1.58,12.06,2.38,18.2,2.38,2.24,0,4.46-.1,6.65-.32,5.01-.46,9.95-1.46,14.75-2.98.01,0,.03-.01.04-.01,3.03-.96,5.99-2.14,8.86-3.51.01-.01.04-.01.05-.03.65-.3,1.27-.63,1.9-.95.1-.05.2-.1.3-.15.51-.27,1.01-.53,1.52-.81,1.27-.7,2.51-1.43,3.74-2.22.34-.2.67-.42,1.01-.65.48-.32.96-.65,1.43-.99.62-.43,1.24-.87,1.85-1.33.19-.14.39-.28.58-.43,24.35-18.48,34.02-50.54,23.97-79.4h0Z"/>
      <path class="cls-4" d="M122.53,258.75l4.1,14.2,52.38-.92-.46-26.02c-.36-20.59-14.92-38.35-35.51-37.99s-33.68,17.77-33.32,38.36l2.99,26.81,8.54-.15,1.28-14.29Z"/>
      <circle class="cls-5" cx="145.38" cy="245.18" r="23.5"/>
      <path class="cls-7" d="M192.16,281.83l-.53,9.89c-23.44,24.38-61.96,25.87-87.22,3.38-.54-.48-1.08-.98-1.6-1.49,3.26-3.24,12.25-11.23,22.24-11.97l45.02-2.84s17.05-2,22.09,3.03Z"/>
      <path class="cls-4" d="M171.11,228.68c-.03-1.8-.59-3.55-1.62-5.03-.11-.15-.22-.29-.33-.43-1.77-2.25-4.48-3.55-7.34-3.51l-16.89.3-16.88.29c-5.03.1-9.04,4.25-8.96,9.29l4.02,8.09,2.31,4.65.38-.22c14.61-8.21,20.58-8.32,39.92-.68l.39.15,1.53-3.92,3.48-8.9v-.09Z"/>
      <path class="cls-7" d="M197.5,288.48c-1.36,1.74-2.58,1.71-4.12,3.29-3.87,4.03-10.04,7.48-14.86,10.36l-1.05-18.88,14.7-1.42c2.45,1.59,4.32,3.92,5.33,6.65Z"/>
    </g>
    <path class="cls-7" d="M214.04,219.05c-12.81-36.81-53.04-56.26-89.85-43.45-36.81,12.81-56.26,53.04-43.45,89.85,2.6,7.47,6.43,14.44,11.34,20.64.63.8,1.29,1.6,1.96,2.37.05.05.09.1.14.15,1.65,1.9,3.41,3.71,5.26,5.42.48.44.99.9,1.49,1.33.96.86,1.95,1.68,2.98,2.47.41.32.8.63,1.22.94,1.62,1.23,3.31,2.37,5.04,3.46l.08.04c.49.3,1,.61,1.51.9.91.54,1.85,1.06,2.79,1.56l.6.3c1.37.71,2.76,1.38,4.19,2,.29.13.61.25.9.38.03.01.04.01.06.03.67.28,1.34.54,2.03.8,2.25.86,4.54,1.59,6.87,2.2,5.94,1.58,12.06,2.38,18.2,2.38,2.24,0,4.46-.1,6.65-.32,5.01-.46,9.95-1.46,14.75-2.98.01,0,.03-.01.04-.01,3.03-.96,5.99-2.14,8.86-3.51.01-.01.04-.01.05-.03.65-.3,1.27-.63,1.9-.95.1-.05.2-.1.3-.15.51-.27,1.01-.53,1.52-.81,1.27-.7,2.51-1.43,3.74-2.22.34-.2.67-.42,1.01-.65.48-.32.96-.65,1.43-.99.62-.43,1.24-.87,1.85-1.33.19-.14.39-.28.58-.43,24.35-18.48,34.02-50.54,23.97-79.4h0ZM187.75,295.37c-.42.33-.85.65-1.28.94-.42.32-.84.62-1.27.9-.37.27-.73.52-1.11.76l-.11.08c-.28.19-.56.37-.84.54-1.05.66-2.12,1.29-3.19,1.9-.11.06-.23.13-.34.19-.48.27-.96.52-1.44.77-.06.04-.14.06-.2.1l-.08.04c-.61.32-1.23.62-1.85.91-2.4,1.15-4.86,2.15-7.39,2.99-.33.11-.66.23-.99.33-4.54,1.44-9.22,2.39-13.96,2.84-2.08.19-4.18.29-6.3.29-5.81.01-11.6-.75-17.22-2.25-2.88-.75-5.7-1.71-8.45-2.86-.14-.06-.29-.11-.43-.18-.15-.06-.29-.11-.43-.18-.15-.06-.29-.13-.44-.2-1.19-.52-2.37-1.09-3.52-1.68l-.56-.29c-1.41-.73-2.79-1.52-4.13-2.36-.39-.24-.8-.49-1.18-.76-.1-.06-.19-.13-.29-.19-.9-.6-1.8-1.22-2.67-1.86-.59-.44-1.19-.89-1.77-1.34-.98-.73-1.91-1.52-2.82-2.33-.48-.41-.95-.85-1.41-1.27-1.8-1.66-3.5-3.42-5.09-5.27-.53-.61-1.05-1.22-1.55-1.85-.11-.13-.22-.26-.32-.39-22.88-28.87-18.02-70.83,10.85-93.71,28.87-22.88,70.83-18.02,93.71,10.85,22.88,28.87,18.02,70.83-10.85,93.71-.36.28-.72.57-1.09.84h0Z"/>
  </g>
  <g>
    <path class="cls-14" d="M401.78,484.36h-161.57c-18.94-.02-34.28-15.37-34.3-34.3V34.3C205.93,15.37,221.28.02,240.22,0h21.84l-.84,2.07c-2.94,7.2.52,15.42,7.72,18.36,1.69.69,3.5,1.04,5.32,1.04h92.12c7.78,0,14.08-6.31,14.08-14.09,0-1.82-.35-3.63-1.04-5.32L378.56,0h23.22c18.94.02,34.28,15.37,34.3,34.3v415.75c-.02,18.94-15.37,34.28-34.3,34.3Z"/>
    <path class="cls-8" d="M401.78,484.36h-161.57c-18.94-.02-34.28-15.37-34.3-34.3V34.3C205.93,15.37,221.28.02,240.22,0h21.84l-.84,2.07c-2.94,7.2.52,15.42,7.72,18.36,1.69.69,3.5,1.04,5.32,1.04h92.12c7.78,0,14.08-6.31,14.08-14.09,0-1.82-.35-3.63-1.04-5.32L378.56,0h23.22c18.94.02,34.28,15.37,34.3,34.3v415.75c-.02,18.94-15.37,34.28-34.3,34.3ZM240.22,3c-17.28.02-31.28,14.02-31.3,31.3v415.75c.02,17.28,14.02,31.28,31.3,31.3h161.57c17.28-.02,31.28-14.02,31.3-31.3V34.3c-.02-17.28-14.02-31.28-31.3-31.3h-18.9c2.42,9.12-3.01,18.48-12.13,20.9-1.43.38-2.9.57-4.38.57h-92.12c-9.44,0-17.09-7.66-17.08-17.1,0-1.48.19-2.95.57-4.38h-17.52Z"/>
    <path class="cls-6" d="M384.7,328.09h-118.4c-7.85,0-14.2-6.38-14.19-14.22,0-7.83,6.36-14.18,14.19-14.19h118.4c7.85,0,14.21,6.35,14.22,14.19,0,7.85-6.35,14.21-14.19,14.22h-.03Z"/>
    <path class="cls-6" d="M384.7,371.89h-118.4c-7.85,0-14.21-6.36-14.21-14.21s6.36-14.21,14.21-14.21h118.4c7.85,0,14.21,6.36,14.21,14.21s-6.36,14.21-14.21,14.21h0Z"/>
    <circle class="cls-8" cx="321.35" cy="419.85" r="14.21"/>
    <path class="cls-8" d="M390.98,419.84c-6.72-2.49-15.07-6.75-20.24-11.26l3.65,10.08h-25.8v2.37h25.8l-3.65,10.08c5.17-4.51,13.52-8.77,20.24-11.26Z"/>
    <path class="cls-8" d="M251.73,419.84c6.72-2.49,15.07-6.75,20.24-11.26l-3.65,10.08h25.8v2.37h-25.8l3.65,10.08c-5.17-4.51-13.52-8.77-20.24-11.26Z"/>
    <g>
      <path class="cls-14" d="M406.4,147.02c-15.57-44.72-64.44-68.36-109.16-52.79-44.72,15.57-68.36,64.44-52.79,109.16,3.16,9.07,7.82,17.55,13.78,25.07.77.97,1.57,1.94,2.39,2.88.06.06.11.12.17.18,2.01,2.31,4.14,4.51,6.39,6.59.58.54,1.2,1.09,1.82,1.62,1.17,1.05,2.37,2.05,3.62,3,2.43,1.92,4.97,3.7,7.6,5.34l.09.05c1.71,1.06,3.45,2.05,5.22,2.99l.72.37c1.66.86,3.36,1.68,5.09,2.43.35.15.74.31,1.09.46.03.02.05.02.08.03,3.51,1.46,7.12,2.68,10.8,3.65,7.21,1.92,14.65,2.9,22.12,2.89,2.72,0,5.42-.12,8.08-.38,6.08-.56,12.09-1.77,17.91-3.62.02,0,.03-.02.05-.02,3.68-1.17,7.27-2.6,10.76-4.26.02-.02.05-.02.06-.03.78-.37,1.54-.77,2.31-1.15.12-.06.25-.12.37-.18.62-.32,1.23-.65,1.85-.98,1.54-.85,3.05-1.74,4.54-2.69.42-.25.82-.51,1.23-.78,1.35-.89,2.69-1.85,3.99-2.82.23-.17.48-.34.71-.52,29.58-22.45,41.34-61.4,29.12-96.47h0Z"/>
      <g class="cls-16">
        <g>
          <path class="cls-4" d="M304.86,210.67s28.9-6.66,44.79,5.55-20.23,39.95-20.23,39.95l-24.56-45.5Z"/>
          <circle class="cls-13" cx="324.03" cy="170.83" r="27.26"/>
          <path class="cls-11" d="M275.91,355.19c-1.85.12-3.7-.1-5.47-.63l-.39-.17.06-.42c.07-.54,7.34-53.93,3.2-65.31-3.55-9.77-10.86-42.76-13.01-52.63-.51-2.31.56-4.69,2.63-5.84l39.44-22.11c3.37-1.9,7.63-.8,9.66,2.5l10.03,16.19,15.65-15.65c2.47-2.48,6.37-2.82,9.24-.81l32.99,23.09c2.94,2.04,4.07,5.84,2.72,9.15-6.29,15.56-20.48,56.96-16.26,105.1l.07.78-.76-.2c-.29-.07-28.76-7.27-57.88,1.05-16.94,4.84-26.66,5.9-31.92,5.9Z"/>
          <path class="cls-11" d="M264.29,230.8h0c-2.41-.34-4.69,1.15-5.34,3.49l-17.9,64.65,4.23,39.13,20.1-3.17-2.12-27.5,14.81-34.9-9.77-38.12c-.49-1.89-2.06-3.31-4-3.58Z"/>
          <path class="cls-4" d="M345.11,132.56c-3.71-6.29-10.63-9.97-17.91-9.53-3.74.47-7.39,1.49-10.83,3.03l-17.82,6.95c-4.61,1.8-9.66,4-11.66,8.53-1.86,4.2-.47,9.05.93,13.43l6.67,20.79c.74-4.71,2.01-9.31,3.78-13.74,1.94-4.35,5-8.36,9.23-10.53,4.63-2.37,10.08-2.33,15.28-2.08,7.36.35,15.36,1.29,20.59,6.48,2.78,2.95,4.66,6.62,5.43,10.6.76,3.95,1.14,7.97,1.14,12,3.02-5.19,5.56-10.64,7.6-16.28,1.67-4.2,2.63-8.66,2.82-13.18.17-4.56-1.34-9.02-4.25-12.54-3.01-3.36-7.92-5.18-12.23-3.85"/>
          <path class="cls-11" d="M379.23,233.49h0c3.3.55,5.77,3.32,5.94,6.67l6.06,121.19h-22.21l-7.4-64.52,9.42-57.47c.64-3.88,4.3-6.51,8.18-5.87,0,0,.01,0,.02,0Z"/>
        </g>
      </g>
    </g>
    <path class="cls-8" d="M406.5,147.07c-15.57-44.72-64.44-68.36-109.16-52.79-44.72,15.57-68.36,64.44-52.79,109.16,3.16,9.07,7.82,17.55,13.78,25.07.77.97,1.57,1.94,2.39,2.88.06.06.11.12.17.18,2.01,2.31,4.14,4.51,6.39,6.59.58.54,1.2,1.09,1.82,1.62,1.17,1.05,2.37,2.05,3.62,3,2.43,1.92,4.97,3.7,7.6,5.34l.09.05c1.71,1.06,3.45,2.05,5.22,2.99l.72.37c1.66.86,3.36,1.68,5.09,2.43.35.15.74.31,1.09.46.03.02.05.02.08.03,3.51,1.46,7.12,2.68,10.8,3.65,7.21,1.92,14.65,2.9,22.12,2.89,2.72,0,5.42-.12,8.08-.38,6.08-.56,12.09-1.77,17.91-3.62.02,0,.03-.02.05-.02,3.68-1.17,7.27-2.6,10.76-4.26.02-.02.05-.02.06-.03.78-.37,1.54-.77,2.31-1.15.12-.06.25-.12.37-.18.62-.32,1.23-.65,1.85-.98,1.54-.85,3.05-1.74,4.54-2.69.42-.25.82-.51,1.23-.78,1.35-.89,2.69-1.85,3.99-2.82.23-.17.48-.34.71-.52,29.58-22.45,41.34-61.4,29.12-96.47h0ZM374.55,239.8c-.51.4-1.03.78-1.55,1.14-.51.38-1.02.75-1.54,1.09-.45.32-.89.63-1.35.92-.38.26-.77.51-1.15.75-1.28.8-2.57,1.57-3.88,2.31-.14.08-.28.15-.42.23-.58.32-1.17.63-1.75.94-.08.05-.17.08-.25.12l-.09.05c-.74.38-1.49.75-2.25,1.11-2.91,1.4-5.91,2.61-8.97,3.63-.4.14-.8.28-1.2.4-5.51,1.75-11.2,2.91-16.96,3.45-2.52.23-5.08.35-7.65.35-7.06.01-14.1-.91-20.92-2.74-3.5-.91-6.93-2.08-10.27-3.48-.35-.14-.71-.29-1.05-.43-.18-.08-.35-.15-.54-.25-1.45-.63-2.88-1.32-4.28-2.05l-.68-.35c-1.71-.89-3.39-1.85-5.02-2.86-.6-.37-1.2-.75-1.78-1.15-1.85-1.22-3.65-2.52-5.4-3.89-1.19-.89-2.32-1.85-3.43-2.83-.58-.49-1.15-1.03-1.71-1.54-2.18-2.02-4.25-4.15-6.19-6.4-.65-.74-1.28-1.48-1.88-2.25-.14-.15-.26-.31-.38-.48-27.8-35.08-21.9-86.06,13.18-113.86,35.08-27.8,86.06-21.9,113.86,13.18,27.8,35.08,21.9,86.06-13.18,113.86-.44.35-.88.69-1.32,1.02h0Z"/>
  </g>
  <g>
    <line class="cls-2" x1="563.21" y1="266.09" x2="552.4" y2="261.86"/>
    <line class="cls-2" x1="552.21" y1="276.68" x2="563.02" y2="272.45"/>
    <line class="cls-2" x1="562.73" y1="269.34" x2="551.34" y2="268.64"/>
  </g>
  <g>
    <line class="cls-2" x1="598.03" y1="266.09" x2="608.84" y2="261.86"/>
    <line class="cls-2" x1="609.04" y1="276.68" x2="598.23" y2="272.45"/>
    <line class="cls-2" x1="598.52" y1="269.34" x2="609.91" y2="268.64"/>
  </g>
</svg>